<svg width="18" height="19" viewBox="0 0 18 19" xmlns="http://www.w3.org/2000/svg">
<path fill-rule="evenodd" clip-rule="evenodd" d="M13.377 15.0371V8.28711C13.377 5.86979 11.4173 3.91016 9 3.91016C6.58267 3.91016 4.62304 5.86979 4.62304 8.28711V15.0371H13.377ZM9 2.50391C5.80602 2.50391 3.21679 5.09314 3.21679 8.28711V15.1074H2.10938C1.72105 15.1074 1.40625 15.4222 1.40625 15.8105C1.40625 16.1989 1.72105 16.5137 2.10938 16.5137H15.8906C16.279 16.5137 16.5938 16.1989 16.5938 15.8105C16.5938 15.4222 16.279 15.1074 15.8906 15.1074H14.7832V8.28711C14.7832 5.09314 12.194 2.50391 9 2.50391ZM12.4151 8.15907C12.6897 8.43365 12.6897 8.87885 12.4151 9.15343L10.13 11.4386C9.85541 11.7132 9.41021 11.7132 9.13562 11.4386L7.86621 10.1692L6.59679 11.4386C6.3222 11.7132 5.87701 11.7132 5.60242 11.4386C5.32783 11.164 5.32783 10.7188 5.60242 10.4442L7.36902 8.67762C7.64361 8.40303 8.0888 8.40303 8.36339 8.67762L9.63281 9.94704L11.4208 8.15907C11.6954 7.88448 12.1406 7.88448 12.4151 8.15907Z"/>
</svg>
