<svg width="16" height="16" viewBox="0 0 16 16"  xmlns="http://www.w3.org/2000/svg">
<path d="M3.78357 9.5332C3.04273 10.0038 2.59961 10.601 2.59961 11.251C2.59961 12.7692 5.01727 13.9999 7.99961 13.9999C10.9819 13.9999 13.3996 12.7692 13.3996 11.251C13.3996 10.601 12.9565 10.0038 12.2157 9.5332" stroke="#2F374B" stroke-width="1.06667" stroke-linecap="round" stroke-linejoin="round"/>
<g clip-path="url(#clip0)">
<path d="M9.33398 10.3392C8.75708 11.1064 8.23913 11.7629 7.99564 12.0688C7.91408 11.9704 7.8028 11.8352 7.66964 11.6716C7.38303 11.3194 6.99586 10.8359 6.58597 10.3022C5.7529 9.2174 4.86984 7.98054 4.51129 7.20611L4.51055 7.20455C4.26214 6.67256 4.13294 6.09832 4.13294 5.54432C4.13294 3.44944 5.86143 1.73353 7.99961 1.73353C10.1345 1.73353 11.8663 3.45961 11.8663 5.57253C11.8663 6.21555 11.7504 6.67851 11.4596 7.21866C11.0193 8.0356 10.1336 9.27591 9.33398 10.3392Z" stroke="#2F374B" stroke-width="1.06667"/>
<circle cx="8.00046" cy="5.93356" r="1.33333" stroke="#2F374B" stroke-width="1.06667"/>
</g>
<defs>
<clipPath id="clip0">
<rect width="12.9333" height="12.9333" fill="white" transform="translate(1.5332)"/>
</clipPath>
</defs>
</svg>
