<svg width="24" height="24" viewBox="0 0 24 24" xmlns="http://www.w3.org/2000/svg">
<path fill-rule="evenodd" clip-rule="evenodd" d="M17.187 2.96805C17.187 2.59899 16.8878 2.2998 16.5187 2.2998H7.41387C7.04481 2.2998 6.74563 2.59899 6.74563 2.96805V3.82424H4.73913L4.71509 3.82444C3.92328 3.83754 3.29999 4.49666 3.29999 5.2904V20.2336L3.30018 20.2577C3.31272 21.0486 3.94397 21.6998 4.73913 21.6998H19.1935L19.2175 21.6996C20.0093 21.6865 20.6326 21.0274 20.6326 20.2336V5.2904L20.6324 5.26638C20.6199 4.47542 19.9886 3.82424 19.1935 3.82424H17.187V2.96805ZM17.187 5.22755V6.39281C17.187 6.76187 16.8878 7.06105 16.5187 7.06105H7.41387C7.04481 7.06105 6.74563 6.76187 6.74563 6.39281V5.22755H4.7033V20.2965H19.2293V5.22755H17.187ZM8.41624 3.97042H15.5163V5.39044H8.41624V3.97042ZM16.7693 10.6529C16.7693 10.1915 16.3953 9.81757 15.934 9.81757H7.99859L7.98477 9.81768C7.52982 9.82505 7.16328 10.1962 7.16328 10.6529C7.16328 11.1142 7.53726 11.4882 7.99859 11.4882H15.934L15.9478 11.4881C16.4028 11.4807 16.7693 11.1096 16.7693 10.6529ZM16.7693 15.1009C16.7693 14.6396 16.3953 14.2656 15.934 14.2656H7.99859L7.98477 14.2657C7.52982 14.2731 7.16328 14.6442 7.16328 15.1009C7.16328 15.5622 7.53726 15.9362 7.99859 15.9362H15.934L15.9478 15.9361C16.4028 15.9287 16.7693 15.5576 16.7693 15.1009Z"/>
</svg>
