<svg width="24" height="24" viewBox="0 0 24 24" xmlns="http://www.w3.org/2000/svg">
<path fill-rule="evenodd" clip-rule="evenodd" d="M21.8234 3.57463C21.9364 3.68647 21.9999 3.83814 22 3.9963H21.9996V11.8475C21.6498 11.4471 21.244 11.0968 20.7945 10.8087V4.59286H10.8994V11.5728L10.9033 11.8217H13.5578C13.2205 12.2031 12.9341 12.6307 12.7095 13.0938H10.3112C10.0042 13.0938 9.7528 12.8645 9.71592 12.57C9.70295 12.5213 9.69373 12.471 9.69373 12.4181V11.5887L9.61889 6.92697L5.96624 6.91475L3.20547 11.4699V15.8853C3.20547 16.4935 3.70515 16.9874 4.31968 16.9874H5.58843C5.99843 16.2945 6.75686 15.827 7.6253 15.827C8.49374 15.827 9.25217 16.2946 9.66233 16.9874H12.3366C12.4478 17.4062 12.6061 17.8059 12.8056 18.1803H9.98529C9.97576 19.4608 8.92108 20.4999 7.6253 20.4999C6.32952 20.4999 5.27484 19.4608 5.26531 18.1803H4.31968C3.04062 18.1803 2 17.1505 2 15.8853V11.3045C2 11.1962 2.0297 11.0899 2.08594 10.9969L5.10921 6.01064C5.1627 5.92222 5.23843 5.84902 5.32901 5.79818C5.4196 5.74734 5.52195 5.7206 5.62609 5.72056H5.62812L9.69389 5.73386V3.9963C9.69393 3.83814 9.75744 3.68647 9.87045 3.57463C9.98346 3.46279 10.1367 3.39994 10.2965 3.3999H21.3973C21.5571 3.39994 21.7104 3.46279 21.8234 3.57463ZM6.46983 18.163C6.46983 18.7933 6.98811 19.3069 7.6253 19.3069C8.26264 19.3069 8.78077 18.7934 8.78077 18.163C8.78077 17.5326 8.26249 17.02 7.6253 17.02C6.98811 17.02 6.46983 17.5327 6.46983 18.163Z" />
<path d="M6.77138 8.32453C6.92593 8.28459 7.09017 8.3069 7.22813 8.38658C7.29646 8.42612 7.35624 8.4786 7.40406 8.54102C7.45187 8.60344 7.48679 8.67458 7.5068 8.75036C7.52288 8.81125 7.52208 11.1301 7.52115 12.0394C7.52094 12.2393 7.35879 12.3999 7.15885 12.4009C7.01759 12.4016 6.87491 12.4025 6.73157 12.4035C6.19061 12.4072 5.64017 12.4109 5.12066 12.3999C5.04225 12.3892 4.96674 12.3633 4.89845 12.3237C4.83015 12.2841 4.7704 12.2316 4.72261 12.1692C4.67482 12.1067 4.63992 12.0356 4.61991 11.9598C4.59991 11.884 4.59518 11.8051 4.606 11.7275C4.61682 11.6499 4.64298 11.5752 4.68298 11.5076L6.4036 8.59966C6.48458 8.4634 6.61683 8.36447 6.77138 8.32453Z" />
<path fill-rule="evenodd" clip-rule="evenodd" d="M21.9302 15.5851C21.9302 13.3096 20.0855 11.4649 17.8099 11.4649C15.5343 11.4649 13.6896 13.3096 13.6896 15.5851C13.6896 17.8607 15.5343 19.7054 17.8099 19.7054C18.5117 19.7054 19.1725 19.5299 19.7509 19.2205L20.5557 20.1796L20.5648 20.1903C20.868 20.5399 21.3967 20.5829 21.7525 20.2843C22.112 19.9827 22.1588 19.4469 21.8573 19.0875L21.0521 18.1279C21.6021 17.4276 21.9302 16.5447 21.9302 15.5851ZM17.8127 18.4424C19.3892 18.4424 20.6672 17.1644 20.6672 15.5879C20.6672 14.0115 19.3892 12.7335 17.8127 12.7335C16.2363 12.7335 14.9583 14.0115 14.9583 15.5879C14.9583 17.1644 16.2363 18.4424 17.8127 18.4424Z" />
</svg>
