<svg width="23" height="23" viewBox="0 0 23 23"  xmlns="http://www.w3.org/2000/svg">
<path fill-rule="evenodd" clip-rule="evenodd" d="M20.5448 1.14292C20.2715 0.86955 19.8283 0.86955 19.5549 1.14292L15.2651 5.4327L10.9753 1.14292C10.5197 0.687306 9.78102 0.687305 9.32541 1.14292L1.15832 9.31C0.70271 9.76561 0.70271 10.5043 1.15832 10.9599L12.3778 22.1793C12.8334 22.635 13.5721 22.635 14.0277 22.1793L22.1947 14.0123C22.6504 13.5566 22.6504 12.818 22.1947 12.3623L17.905 8.07256L22.1947 3.78278C22.4681 3.50942 22.4681 3.0662 22.1947 2.79283L20.5448 1.14292ZM3.30321 10.135L6.93303 6.50514L16.8325 16.4046L13.2027 20.0345L11.7178 18.5495L13.7802 16.4871C13.9624 16.3049 13.9624 16.0094 13.7802 15.8272L13.2852 15.3322C13.103 15.1499 12.8075 15.1499 12.6252 15.3322L10.5628 17.3946L8.83043 15.6622L11.1403 13.3523C11.3226 13.17 11.3226 12.8746 11.1403 12.6923L10.6453 12.1974C10.4631 12.0151 10.1676 12.0151 9.98537 12.1974L7.67549 14.5072L5.94308 12.7748L8.00547 10.7124C8.18772 10.5302 8.18772 10.2347 8.00547 10.0525L7.5105 9.55749C7.32825 9.37524 7.03278 9.37524 6.85053 9.55749L4.78814 11.6199L3.30321 10.135ZM17.9875 15.2497L8.08797 5.3502L10.1504 3.28781L20.0499 13.1873L17.9875 15.2497Z"/>
</svg>
