<svg width="18" height="19" viewBox="0 0 18 19" xmlns="http://www.w3.org/2000/svg">
<path fill-rule="evenodd" clip-rule="evenodd" d="M15.6433 2.20508C16.3063 2.20508 16.8465 2.73582 16.8573 3.39643L16.8574 3.41649V15.5835C16.8574 16.2467 16.3238 16.7841 15.6633 16.7948L15.6433 16.7949H2.35673C1.69371 16.7949 1.15348 16.2642 1.14274 15.6036L1.14267 15.5948L1.10753 13.5728C1.10085 13.1884 1.40391 12.8707 1.78671 12.8578L1.79833 12.8575C2.18272 12.8508 2.50041 13.1539 2.51327 13.5367L2.51357 13.5483L2.54553 15.3887H15.4512V3.61133H2.54883V6.96875C2.54883 7.35319 2.2403 7.66557 1.85733 7.67178L1.84571 7.67188C1.46126 7.67188 1.14888 7.36334 1.14267 6.98038L1.14258 6.96875V3.41649C1.14258 2.75329 1.67618 2.21592 2.33667 2.20524L2.35673 2.20508H15.6433ZM10.7679 6.125H14.1428V9.50001L13.035 8.3922L9.40636 11.3666C9.15726 11.5708 8.80168 11.5794 8.54319 11.3886L8.53539 11.3828L5.78818 9.29656L2.30614 11.9408C1.99997 12.1733 1.5646 12.1166 1.32804 11.8153L1.32093 11.8061C1.08843 11.5 1.14522 11.0646 1.44646 10.828L1.45566 10.8209L5.36295 7.85371C5.6118 7.66473 5.95512 7.66284 6.20586 7.84804L6.21343 7.85371L8.94398 9.92729L12.0358 7.39296L10.7679 6.125Z"/>
</svg>
