<svg width="18" height="19" viewBox="0 0 18 19" xmlns="http://www.w3.org/2000/svg">
<path fill-rule="evenodd" clip-rule="evenodd" d="M16.2068 1.26611C16.4044 1.39616 16.5234 1.6169 16.5234 1.85352V15.2568C16.5234 15.5405 16.353 15.7964 16.0912 15.9057L11.565 17.7953C11.3919 17.8676 11.1972 17.8677 11.024 17.7957L6.70881 16.0003L2.37207 17.2339C2.15999 17.2942 1.9319 17.2516 1.75594 17.1187C1.57999 16.9858 1.47656 16.7781 1.47656 16.5576V3.80469C1.47656 3.52302 1.64466 3.26853 1.90374 3.15798L6.47645 1.20681C6.65328 1.13135 6.85329 1.1316 7.02994 1.20749L11.2936 3.03922L15.542 1.20783C15.7593 1.11416 16.0091 1.13607 16.2068 1.26611ZM10.591 4.26788L7.45552 2.92085V14.7878L10.591 16.0924V4.26788ZM11.9972 16.091L15.1172 14.7884V2.9223L11.9972 4.26726V16.091ZM6.04927 14.7258V2.918L2.88281 4.26913V15.6266L6.04927 14.7258Z"/>
</svg>
