<svg width="18" height="18" viewBox="0 0 18 18" xmlns="http://www.w3.org/2000/svg">
<path fill-rule="evenodd" clip-rule="evenodd" d="M2.98114 4.4999V2.75306H13.3689V4.4999H2.98114ZM3.03487 5.8499C3.06039 5.89403 3.075 5.94526 3.075 5.9999V7.7999H10.8828C10.3528 8.16226 9.89363 8.62061 9.53033 9.1499H2.98114V13.6717H8.87606C9.0499 14.2082 9.30895 14.7062 9.63725 15.1499H6V15.3749V15.7499C6 16.0813 5.73137 16.3499 5.4 16.3499H4.2C3.86863 16.3499 3.6 16.0813 3.6 15.7499V15.3749V15.1499H2.7639C2.06587 15.1499 1.5 14.5852 1.5 13.8885V8.1749H0.675C0.509315 8.1749 0.375 8.04059 0.375 7.8749V5.9999C0.375 5.83422 0.509315 5.6999 0.675 5.6999H1.5V2.53627C1.5 1.83963 2.06587 1.2749 2.76391 1.2749H13.5861C14.2841 1.2749 14.85 1.83963 14.85 2.53627V5.6999H16.2C16.3657 5.6999 16.5 5.83422 16.5 5.9999V7.65922C15.714 7.17756 14.7894 6.8999 13.8 6.8999C13.6548 6.8999 13.511 6.90588 13.3689 6.91761V5.8499H3.03487Z"/>
<path fill-rule="evenodd" clip-rule="evenodd" d="M13.8001 14.7936C15.343 14.7936 16.5938 13.5427 16.5938 11.9998C16.5938 10.4569 15.343 9.20605 13.8001 9.20605C12.2572 9.20605 11.0063 10.4569 11.0063 11.9998C11.0063 13.5427 12.2572 14.7936 13.8001 14.7936ZM13.8001 16.1998C16.1197 16.1998 18.0001 14.3194 18.0001 11.9998C18.0001 9.68021 16.1197 7.7998 13.8001 7.7998C11.4805 7.7998 9.6001 9.68021 9.6001 11.9998C9.6001 14.3194 11.4805 16.1998 13.8001 16.1998Z"/>
<path fill-rule="evenodd" clip-rule="evenodd" d="M14.8245 10.7599C14.8259 10.6779 14.8195 10.5959 14.8053 10.5152C14.7841 10.3773 14.7234 10.2489 14.6308 10.146C14.5511 10.0532 14.4522 9.97967 14.3411 9.93071C14.1851 9.86453 14.0182 9.82895 13.8493 9.82585C13.7889 9.82305 13.7298 9.83005 13.6666 9.83145C13.5699 9.83564 13.4741 9.85114 13.3809 9.8776C13.2195 9.91799 13.0739 10.0072 12.9633 10.1335C12.9012 10.2069 12.8528 10.2912 12.8205 10.3823C12.7851 10.4958 12.7679 10.6143 12.7696 10.7333C12.7692 10.815 12.7728 10.8966 12.7806 10.9779C12.7861 11.0451 12.7874 11.1136 12.7998 11.1821C12.8177 11.294 12.8397 11.4072 12.8616 11.519C12.9028 11.7348 12.9721 11.9441 13.0677 12.1412C13.1259 12.2561 13.2079 12.3567 13.308 12.4363C13.4038 12.5127 13.5128 12.5701 13.6294 12.6054C13.7078 12.6292 13.79 12.6363 13.8712 12.6264C13.9723 12.6077 14.0698 12.5723 14.1597 12.5215C14.2859 12.4468 14.3939 12.3441 14.4756 12.2209C14.5385 12.1207 14.5883 12.0126 14.624 11.8993C14.6903 11.7106 14.7386 11.5159 14.7682 11.3177C14.7833 11.1989 14.8039 11.0842 14.8122 10.9654C14.8163 10.8955 14.8204 10.8633 14.8232 10.7948L14.8245 10.7599ZM13.1913 12.5118V12.6432C13.1925 12.6835 13.1809 12.7232 13.1584 12.7564C13.1131 12.8215 13.0462 12.8676 12.9702 12.8865C12.8342 12.9284 12.6982 12.9648 12.5649 13.0025C12.4083 13.0459 12.2518 13.0878 12.0952 13.1283C12.0388 13.1451 11.9852 13.1591 11.9248 13.1773C12.4962 13.861 13.2119 14.1798 14.0814 14.0833C14.3928 14.0488 14.6943 13.9511 14.968 13.796C15.2417 13.6409 15.482 13.4314 15.6748 13.1801C15.5814 13.1549 15.4921 13.1325 15.4028 13.1101L14.7833 12.9508C14.6875 12.9318 14.5947 12.8998 14.5073 12.8557C14.4622 12.8364 14.4241 12.8033 14.3985 12.7609C14.3729 12.7185 14.361 12.669 14.3644 12.6194V12.5775C14.3617 12.5775 14.3602 12.5747 14.3574 12.5747C14.3506 12.5845 14.3424 12.5956 14.3356 12.604C14.2474 12.6977 14.1412 12.7719 14.0237 12.8222C13.9019 12.8774 13.7643 12.8844 13.6378 12.8417C13.5067 12.7963 13.3878 12.7207 13.2902 12.6208C13.2535 12.5882 13.2203 12.5517 13.1913 12.5118Z"/>
<path fill-rule="evenodd" clip-rule="evenodd" d="M7.7251 12.0002H4.3501V10.5752H7.7251V12.0002Z"/>
</svg>
