<svg width="24" height="24" viewBox="0 0 24 24" fill="none" xmlns="http://www.w3.org/2000/svg">
<path fill-rule="evenodd" clip-rule="evenodd" d="M3 4.7002C3 4.14791 3.44772 3.7002 4 3.7002H20C20.5523 3.7002 21 4.14791 21 4.7002C21 5.25248 20.5523 5.7002 20 5.7002H4C3.44772 5.7002 3 5.25248 3 4.7002ZM3 9.60019C3 9.04791 3.44772 8.60019 4 8.60019H11.9C12.4523 8.60019 12.9 9.04791 12.9 9.60019C12.9 10.1525 12.4523 10.6002 11.9 10.6002H4C3.44772 10.6002 3 10.1525 3 9.60019ZM4 13.5002C3.44772 13.5002 3 13.9479 3 14.5002C3 15.0525 3.44772 15.5002 4 15.5002H11.9C12.4523 15.5002 12.9 15.0525 12.9 14.5002C12.9 13.9479 12.4523 13.5002 11.9 13.5002H4ZM3 19.4002C3 18.8479 3.44772 18.4002 4 18.4002H20C20.5523 18.4002 21 18.8479 21 19.4002C21 19.9525 20.5523 20.4002 20 20.4002H4C3.44772 20.4002 3 19.9525 3 19.4002ZM20.9 8.7861L16.4 12.2502L20.9 15.7143V8.7861Z" fill="#2F374B"/>
</svg>
