<svg width="20" height="20" viewBox="0 0 20 20" fill="none" xmlns="http://www.w3.org/2000/svg">
<path d="M10.0175 13.3331C8.05247 13.3331 6.17244 12.0706 4.70424 10.6507C3.98667 9.95682 3.40323 9.25999 2.99896 8.73571C2.79736 8.47426 2.64165 8.25746 2.53746 8.10774C2.48539 8.03293 2.44627 7.97499 2.42081 7.93675C2.40808 7.91763 2.39877 7.90345 2.39297 7.89456C2.39007 7.89011 2.38804 7.88698 2.38691 7.88523L2.38598 7.88379C2.38607 7.88394 2.38618 7.88411 1.68416 8.33312C0.982138 8.78212 0.982275 8.78234 0.982426 8.78258L0.98381 8.78473L0.986856 8.78946C0.989343 8.79331 0.992742 8.79855 0.997041 8.80514C1.00564 8.81832 1.01784 8.8369 1.03356 8.8605C1.065 8.90771 1.11053 8.9751 1.16947 9.05979C1.28729 9.22908 1.45902 9.46802 1.67911 9.75344C2.02466 10.2016 2.49271 10.7686 3.06168 11.3624L2.64128 11.6304L3.5372 13.0358L4.30988 12.5432C4.79475 12.9558 5.33083 13.3593 5.91009 13.7161L5.28561 14.8628L6.74929 15.6599L7.39687 14.4708C7.96581 14.6977 8.56338 14.8645 9.18404 14.9453V16.3331H10.8507V14.9453C11.4715 14.8645 12.0691 14.6977 12.6381 14.4708L13.2857 15.6598L14.7494 14.8627L14.1249 13.7161C14.7041 13.3593 15.2402 12.9558 15.7251 12.5433L16.4976 13.0358L17.3936 11.6304L16.9733 11.3625C17.5422 10.7686 18.0103 10.2016 18.3559 9.75344C18.576 9.46802 18.7477 9.22908 18.8655 9.05979C18.9245 8.9751 18.97 8.90771 19.0014 8.8605C19.0171 8.8369 19.0293 8.81832 19.0379 8.80514L19.0436 8.79638L19.0481 8.78946L19.0512 8.78473L19.0526 8.78258C19.0527 8.78234 19.0528 8.78212 18.3508 8.33312C17.6488 7.88411 17.6489 7.88394 17.649 7.88379L17.647 7.88684L17.642 7.89456C17.6362 7.90345 17.6269 7.91763 17.6142 7.93675C17.5887 7.97499 17.5496 8.03293 17.4975 8.10774C17.3933 8.25746 17.2376 8.47426 17.036 8.73571C16.6318 9.25999 16.0483 9.95682 15.3307 10.6507C13.8625 12.0706 11.9825 13.3331 10.0175 13.3331Z" fill="#2F374B"/>
</svg>
