<svg width="20" height="20" viewBox="0 0 20 20" fill="none" xmlns="http://www.w3.org/2000/svg">
<path d="M2.67997 9.99967C2.7645 9.8831 2.86528 9.74748 2.98125 9.59708C3.38552 9.0728 3.96896 8.37597 4.68653 7.68205C6.15473 6.26224 8.03476 4.99967 9.99978 4.99967C11.9648 4.99967 13.8448 6.26224 15.313 7.68205C16.0306 8.37597 16.6141 9.0728 17.0183 9.59708C17.1343 9.74748 17.2351 9.8831 17.3196 9.99967C17.2351 10.1163 17.1343 10.2519 17.0183 10.4023C16.6141 10.9265 16.0306 11.6234 15.313 12.3173C13.8448 13.7371 11.9648 14.9997 9.99978 14.9997C8.03476 14.9997 6.15473 13.7371 4.68653 12.3173C3.96896 11.6234 3.38552 10.9265 2.98125 10.4023C2.86528 10.2519 2.7645 10.1163 2.67997 9.99967ZM18.3331 9.99967C19.0351 9.55067 19.035 9.55045 19.0349 9.55021L19.0345 9.54963L19.0335 9.54806L19.0304 9.54333C19.0279 9.53948 19.0245 9.53424 19.0202 9.52765C19.0116 9.51447 18.9994 9.49589 18.9837 9.47228C18.9523 9.42508 18.9067 9.35769 18.8478 9.273C18.73 9.10371 18.5583 8.86477 18.3382 8.57935C17.8991 8.00988 17.2621 7.24838 16.4716 6.48396C14.9238 4.98711 12.6371 3.33301 9.99978 3.33301C7.36244 3.33301 5.0758 4.98711 3.52793 6.48396C2.73746 7.24838 2.10051 8.00988 1.6614 8.57935C1.44132 8.86477 1.26958 9.10371 1.15176 9.273C1.09282 9.35769 1.04729 9.42508 1.01585 9.47228C1.00013 9.49589 0.98793 9.51447 0.979332 9.52765C0.975033 9.53424 0.971635 9.53948 0.969147 9.54333L0.966101 9.54806L0.965093 9.54963L0.964718 9.55021C0.964566 9.55045 0.964429 9.55067 1.66645 9.99967L0.964429 9.55067L0.677246 9.99967L0.964429 10.4487L1.66645 9.99967C0.964429 10.4487 0.964566 10.4489 0.964718 10.4491L0.965093 10.4497L0.966101 10.4513L0.969147 10.456C0.971635 10.4599 0.975033 10.4651 0.979332 10.4717C0.98793 10.4849 1.00013 10.5035 1.01585 10.5271C1.04729 10.5743 1.09282 10.6417 1.15176 10.7263C1.26958 10.8956 1.44132 11.1346 1.6614 11.42C2.10051 11.9895 2.73746 12.751 3.52793 13.5154C5.0758 15.0122 7.36244 16.6663 9.99978 16.6663C12.6371 16.6663 14.9238 15.0122 16.4716 13.5154C17.2621 12.751 17.8991 11.9895 18.3382 11.42C18.5583 11.1346 18.73 10.8956 18.8478 10.7263C18.9067 10.6417 18.9523 10.5743 18.9837 10.5271C18.9994 10.5035 19.0116 10.4849 19.0202 10.4717C19.0245 10.4651 19.0279 10.4599 19.0304 10.456L19.0335 10.4513L19.0345 10.4497L19.0349 10.4491C19.035 10.4489 19.0351 10.4487 18.3331 9.99967ZM18.3331 9.99967L19.0351 10.4487L19.3223 9.99967L19.0351 9.55067L18.3331 9.99967ZM2.36817 9.55018C2.3681 9.55009 2.3681 9.55008 2.36815 9.55016L2.36817 9.55018Z" fill="#2F374B"/>
<path d="M10.0002 7.74967C8.75752 7.74967 7.75016 8.75703 7.75016 9.99967C7.75016 11.2423 8.75752 12.2497 10.0002 12.2497C11.2428 12.2497 12.2502 11.2423 12.2502 9.99967C12.2502 8.75703 11.2428 7.74967 10.0002 7.74967ZM6.0835 9.99967C6.0835 7.83656 7.83705 6.08301 10.0002 6.08301C12.1633 6.08301 13.9168 7.83656 13.9168 9.99967C13.9168 12.1628 12.1633 13.9163 10.0002 13.9163C7.83705 13.9163 6.0835 12.1628 6.0835 9.99967Z" fill="#2F374B"/>
</svg>
