<svg width="28" height="28" viewBox="0 0 28 28" fill="none" xmlns="http://www.w3.org/2000/svg">
<g clip-path="url(#clip0)">
<path d="M0 6.4C0 4.15979 0 3.03969 0.435974 2.18404C0.819467 1.43139 1.43139 0.819467 2.18404 0.435974C3.03969 0 4.15979 0 6.4 0H21.6C23.8402 0 24.9603 0 25.816 0.435974C26.5686 0.819467 27.1805 1.43139 27.564 2.18404C28 3.03969 28 4.15979 28 6.4V21.6C28 23.8402 28 24.9603 27.564 25.816C27.1805 26.5686 26.5686 27.1805 25.816 27.564C24.9603 28 23.8402 28 21.6 28H6.4C4.15979 28 3.03969 28 2.18404 27.564C1.43139 27.1805 0.819467 26.5686 0.435974 25.816C0 24.9603 0 23.8402 0 21.6V6.4Z" fill="white"/>
<rect x="-6" y="-2" width="19" height="21" fill="#33C8A8" fill-opacity="0.5"/>
<rect x="-6" y="22" width="19" height="21" fill="#F0F2F5"/>
<rect x="16" y="-2" width="19" height="21" fill="#DEE4EB"/>
<rect x="16" y="22" width="19" height="21" fill="#5EA9FE" fill-opacity="0.5"/>
<path fill-rule="evenodd" clip-rule="evenodd" d="M25.0297 14.5755C25.0297 14.4325 25.0075 14.3077 24.9663 14.204C24.8203 13.8336 24.4398 13.7289 23.9939 13.9856C23.549 14.2433 23.1695 14.7858 23.0266 15.3234C22.9863 15.4744 22.9651 15.6243 22.9651 15.7673C22.9651 15.7743 22.9654 15.7814 22.9657 15.7884C22.9659 15.7955 22.9662 15.8025 22.9662 15.8096C22.9873 16.4337 23.4433 16.6793 24.0009 16.3572C24.5576 16.035 25.0106 15.265 25.0287 14.6188C25.0297 14.6047 25.0297 14.5896 25.0297 14.5755ZM24.7276 14.7496C24.7286 15.2126 24.4024 15.7773 23.9998 16.0098C23.5971 16.2423 23.269 16.0551 23.268 15.5921C23.266 15.129 23.5921 14.5653 23.9947 14.3328C24.3984 14.1003 24.7265 14.2865 24.7276 14.7496Z" fill="black"/>
<path d="M23.995 14.333C24.3976 14.1005 24.7258 14.2867 24.7278 14.7498C24.7288 15.2128 24.4026 15.7775 24 16.01C23.5974 16.2426 23.2692 16.0553 23.2682 15.5923C23.2672 15.1292 23.5923 14.5656 23.995 14.333Z" fill="#95B0C2"/>
<path d="M23.2672 16.4294L17.591 13.1308C17.4138 13.0281 17.3011 12.8137 17.291 12.5107C17.291 12.4966 17.29 12.4825 17.29 12.4684C17.29 12.402 17.294 12.3346 17.3031 12.2661L22.9783 15.5647C22.9692 15.6332 22.9652 15.7006 22.9652 15.7671C22.9652 15.7812 22.9652 15.7953 22.9662 15.8093C22.9773 16.1123 23.09 16.3257 23.2672 16.4294Z" fill="black"/>
<path d="M22.9794 15.5652L17.3042 12.2665C17.3102 12.2182 17.3183 12.1699 17.3294 12.1216L23.0046 15.4202C22.9935 15.4685 22.9855 15.5168 22.9794 15.5652Z" fill="black"/>
<path d="M23.0034 15.4203L17.3282 12.1216C17.3352 12.0894 17.3433 12.0572 17.3513 12.025C17.3534 12.018 17.3554 12.0119 17.3564 12.0049L23.0316 15.3035C23.0296 15.3106 23.0276 15.3166 23.0266 15.3237C23.0185 15.3559 23.0105 15.3881 23.0034 15.4203Z" fill="black"/>
<path d="M23.0327 15.3032L17.3575 12.0046C17.3675 11.9694 17.3776 11.9351 17.3897 11.8999L23.0649 15.1985C23.0528 15.2328 23.0428 15.268 23.0327 15.3032Z" fill="black"/>
<path d="M23.0649 15.1985L17.3896 11.8999C17.4007 11.8677 17.4118 11.8345 17.4249 11.8022L23.1001 15.1009C23.087 15.1331 23.0759 15.1663 23.0649 15.1985Z" fill="black"/>
<path d="M23.0991 15.1007L17.4239 11.8021C17.436 11.7709 17.448 11.7407 17.4621 11.7095L23.1374 15.0081C23.1243 15.0393 23.1112 15.0695 23.0991 15.1007Z" fill="black"/>
<path d="M23.1375 15.0083L17.4623 11.7097C17.4754 11.6795 17.4885 11.6503 17.5036 11.6201L23.1788 14.9188C23.1637 14.949 23.1506 14.9792 23.1375 15.0083Z" fill="black"/>
<path d="M23.1787 14.9199L17.5025 11.6213C17.5166 11.5921 17.5317 11.5629 17.5468 11.5337L23.222 14.8323C23.2069 14.8605 23.1928 14.8907 23.1787 14.9199Z" fill="black"/>
<path d="M23.223 14.8325L17.5478 11.5338C17.5629 11.5046 17.58 11.4755 17.5961 11.4473L23.2713 14.7459C23.2542 14.7741 23.2381 14.8033 23.223 14.8325Z" fill="black"/>
<path d="M23.2711 14.7446L17.5959 11.446C17.613 11.4168 17.6311 11.3876 17.6492 11.3584L23.3245 14.657C23.3063 14.6862 23.2882 14.7154 23.2711 14.7446Z" fill="black"/>
<path d="M23.3246 14.6573L17.6494 11.3586C17.6685 11.3284 17.6887 11.2982 17.7088 11.269L23.384 14.5677C23.3639 14.5979 23.3438 14.6271 23.3246 14.6573Z" fill="black"/>
<path d="M23.3839 14.5685L17.7087 11.2699C17.7308 11.2386 17.754 11.2074 17.7771 11.1772L23.4524 14.4759C23.4292 14.5061 23.406 14.5373 23.3839 14.5685Z" fill="black"/>
<path d="M23.4526 14.476L17.7773 11.1774C17.8045 11.1421 17.8327 11.1089 17.8609 11.0757L23.5361 14.3743C23.5079 14.4065 23.4798 14.4408 23.4526 14.476Z" fill="black"/>
<path d="M23.536 14.3745L17.8608 11.0758C17.897 11.0336 17.9353 10.9943 17.9735 10.9561L23.6487 14.2547C23.6105 14.2919 23.5722 14.3322 23.536 14.3745Z" fill="black"/>
<path d="M23.6485 14.2536L17.9733 10.955C18.081 10.8483 18.1977 10.7577 18.3185 10.6872C18.3679 10.659 18.4172 10.6349 18.4645 10.6147L24.1397 13.9134C24.0924 13.9335 24.0431 13.9577 23.9938 13.9859C23.873 14.0563 23.7562 14.1479 23.6485 14.2536Z" fill="black"/>
<path d="M24.141 13.9132L18.4658 10.6145C18.507 10.5974 18.5473 10.5833 18.5866 10.5732L24.2618 13.8719C24.2225 13.883 24.1813 13.896 24.141 13.9132Z" fill="black"/>
<path d="M24.2618 13.872L18.5865 10.5733C18.6178 10.5653 18.648 10.5582 18.6771 10.5542L24.3524 13.8528C24.3222 13.8569 24.292 13.8639 24.2618 13.872Z" fill="black"/>
<path d="M24.3523 13.8526L18.6771 10.554C18.7033 10.5499 18.7295 10.5469 18.7546 10.5459L24.4299 13.8445C24.4037 13.8455 24.3785 13.8486 24.3523 13.8526Z" fill="black"/>
<path d="M24.4298 13.8447L18.7546 10.5461C18.7777 10.5451 18.7999 10.5451 18.822 10.5471L24.4972 13.8457C24.4751 13.8437 24.452 13.8437 24.4298 13.8447Z" fill="black"/>
<path d="M24.4973 13.8455L18.8221 10.5469C18.8432 10.5479 18.8644 10.5509 18.8845 10.5539L24.5597 13.8526C24.5396 13.8495 24.5184 13.8465 24.4973 13.8455Z" fill="black"/>
<path d="M24.5597 13.8528L18.8845 10.5542C18.9046 10.5572 18.9237 10.5623 18.9418 10.5673L24.6171 13.8659C24.5989 13.8609 24.5788 13.8559 24.5597 13.8528Z" fill="black"/>
<path d="M24.6169 13.866L18.9417 10.5674C18.9608 10.5724 18.979 10.5795 18.9961 10.5865L24.6713 13.8851C24.6542 13.8781 24.6361 13.8721 24.6169 13.866Z" fill="black"/>
<path d="M24.6716 13.8851L18.9964 10.5864C19.0145 10.5935 19.0316 10.6025 19.0477 10.6116L24.723 13.9102C24.7069 13.9012 24.6897 13.8931 24.6716 13.8851Z" fill="black"/>
<path d="M24.7237 13.9109L19.0485 10.6123C19.0505 10.6133 19.0525 10.6143 19.0546 10.6153L24.7298 13.914C24.7278 13.913 24.7258 13.912 24.7237 13.9109Z" fill="black"/>
<path d="M21.1481 15.9766C21.5507 15.7441 21.8789 15.9303 21.8799 16.3933C21.8809 16.8563 21.5558 17.4211 21.1531 17.6536C20.7505 17.8861 20.4223 17.6989 20.4213 17.2358C20.4193 16.7728 20.7455 16.2091 21.1481 15.9766Z" fill="#95B0C2"/>
<path d="M20.4194 18.073L14.7442 14.7743C14.567 14.6717 14.4542 14.4573 14.4442 14.1543C14.4442 14.1402 14.4432 14.1261 14.4432 14.112C14.4432 14.0456 14.4472 13.9781 14.4563 13.9097L20.1315 17.2083C20.1224 17.2768 20.1184 17.3442 20.1184 17.4106C20.1184 17.4247 20.1184 17.4388 20.1194 17.4529C20.1295 17.7559 20.2422 17.9693 20.4194 18.073Z" fill="black"/>
<path d="M20.1315 17.2087L14.4563 13.9101C14.4623 13.8618 14.4704 13.8135 14.4815 13.7651L20.1567 17.0638C20.1466 17.1121 20.1376 17.1604 20.1315 17.2087Z" fill="black"/>
<path d="M20.1566 17.0638L14.4813 13.7652C14.4884 13.733 14.4964 13.7008 14.5045 13.6686C14.5065 13.6615 14.5085 13.6555 14.5095 13.6484L20.1847 16.9471C20.1827 16.9541 20.1807 16.9602 20.1797 16.9672C20.1717 16.9994 20.1636 17.0316 20.1566 17.0638Z" fill="black"/>
<path d="M20.1859 16.9468L14.5107 13.6481C14.5207 13.6129 14.5308 13.5787 14.5429 13.5435L20.2181 16.8421C20.206 16.8763 20.195 16.9116 20.1859 16.9468Z" fill="black"/>
<path d="M20.217 16.8421L14.5417 13.5434C14.5528 13.5112 14.5639 13.478 14.577 13.4458L20.2522 16.7444C20.2401 16.7767 20.228 16.8099 20.217 16.8421Z" fill="black"/>
<path d="M20.2523 16.7443L14.577 13.4456C14.5891 13.4144 14.6012 13.3842 14.6153 13.353L20.2905 16.6517C20.2764 16.6829 20.2643 16.7131 20.2523 16.7443Z" fill="black"/>
<path d="M20.2905 16.6519L14.6152 13.3533C14.6283 13.3231 14.6414 13.2939 14.6565 13.2637L20.3317 16.5623C20.3166 16.5925 20.3025 16.6227 20.2905 16.6519Z" fill="black"/>
<path d="M20.3306 16.5635L14.6554 13.2648C14.6695 13.2356 14.6846 13.2064 14.6997 13.1772L20.3749 16.4759C20.3598 16.5041 20.3447 16.5333 20.3306 16.5635Z" fill="black"/>
<path d="M20.3751 16.476L14.6998 13.1774C14.7149 13.1482 14.732 13.119 14.7481 13.0908L20.4234 16.3895C20.4073 16.4177 20.3912 16.4468 20.3751 16.476Z" fill="black"/>
<path d="M20.4235 16.3882L14.7482 13.0895C14.7653 13.0603 14.7835 13.0311 14.8016 13.002L20.4768 16.3006C20.4587 16.3298 20.4416 16.359 20.4235 16.3882Z" fill="black"/>
<path d="M20.4767 16.3008L14.8015 13.0022C14.8206 12.972 14.8408 12.9418 14.8609 12.9126L20.5361 16.2112C20.516 16.2414 20.4969 16.2706 20.4767 16.3008Z" fill="black"/>
<path d="M20.5371 16.2121L14.8619 12.9134C14.884 12.8822 14.9072 12.851 14.9303 12.8208L20.6056 16.1194C20.5824 16.1496 20.5593 16.1798 20.5371 16.2121Z" fill="black"/>
<path d="M20.6058 16.1195L14.9305 12.8209C14.9577 12.7857 14.9859 12.7525 15.0141 12.7192L20.6893 16.0179C20.6601 16.0501 20.6329 16.0843 20.6058 16.1195Z" fill="black"/>
<path d="M20.6892 16.0175L15.014 12.7189C15.0502 12.6766 15.0885 12.6374 15.1267 12.5991L20.8019 15.8978C20.7627 15.935 20.7254 15.9753 20.6892 16.0175Z" fill="black"/>
<path d="M20.8017 15.8967L15.1265 12.598C15.2342 12.4913 15.3509 12.4008 15.4717 12.3303C15.5211 12.3021 15.5704 12.2779 15.6177 12.2578L21.2929 15.5565C21.2456 15.5766 21.1963 15.6007 21.147 15.6289C21.0262 15.6994 20.9094 15.791 20.8017 15.8967Z" fill="black"/>
<path d="M21.293 15.5567L15.6178 12.2581C15.6591 12.241 15.6993 12.2269 15.7386 12.2168L21.4138 15.5154C21.3746 15.5265 21.3343 15.5396 21.293 15.5567Z" fill="black"/>
<path d="M21.4138 15.5155L15.7386 12.2169C15.7698 12.2088 15.8 12.2018 15.8292 12.1978L21.5044 15.4964C21.4752 15.5004 21.445 15.5075 21.4138 15.5155Z" fill="black"/>
<path d="M21.5044 15.4961L15.8292 12.1975C15.8553 12.1935 15.8815 12.1905 15.9067 12.1895L21.5819 15.4881C21.5567 15.4891 21.5316 15.4921 21.5044 15.4961Z" fill="black"/>
<path d="M21.5819 15.4883L15.9066 12.1896C15.9298 12.1886 15.9519 12.1886 15.9741 12.1906L21.6493 15.4893C21.6282 15.4873 21.605 15.4873 21.5819 15.4883Z" fill="black"/>
<path d="M21.6505 15.4891L15.9753 12.1904C15.9964 12.1914 16.0176 12.1945 16.0377 12.1975L21.7129 15.4961C21.6918 15.4921 21.6716 15.4901 21.6505 15.4891Z" fill="black"/>
<path d="M21.7117 15.4964L16.0365 12.1978C16.0566 12.2008 16.0758 12.2058 16.0939 12.2108L21.7691 15.5095C21.751 15.5044 21.7319 15.4994 21.7117 15.4964Z" fill="black"/>
<path d="M21.7701 15.5096L16.0949 12.2109C16.114 12.216 16.1322 12.223 16.1493 12.2301L21.8245 15.5287C21.8064 15.5216 21.7883 15.5156 21.7701 15.5096Z" fill="black"/>
<path d="M21.8245 15.5286L16.1493 12.23C16.1674 12.237 16.1845 12.2461 16.2006 12.2551L21.8759 15.5538C21.8598 15.5447 21.8426 15.5367 21.8245 15.5286Z" fill="black"/>
<path d="M21.8758 15.5535L16.2006 12.2549C16.2026 12.2559 16.2046 12.2569 16.2066 12.2579L21.8818 15.5565C21.8798 15.5565 21.8778 15.5555 21.8758 15.5535Z" fill="black"/>
<path d="M12.9041 14.7467L25.8037 7.29883L25.8218 13.7099L24.9652 14.2041C24.8192 13.8337 24.4387 13.729 23.9938 13.9867C23.5489 14.2434 23.1694 14.7869 23.0265 15.3245L22.1185 15.8489C21.9725 15.4785 21.592 15.3738 21.1471 15.6315C20.7022 15.8892 20.3227 16.4317 20.1798 16.9693L12.9222 21.1598L12.9071 15.9768L12.9041 14.7467Z" fill="#CBBED8"/>
<path fill-rule="evenodd" clip-rule="evenodd" d="M22.1819 16.219C22.1819 16.0761 22.1598 15.9513 22.1185 15.8476C21.9725 15.4772 21.593 15.3725 21.1461 15.6292C20.7012 15.8868 20.3217 16.4294 20.1788 16.9669C20.1385 17.1179 20.1174 17.2679 20.1174 17.4108C20.1174 17.4179 20.1176 17.4249 20.1179 17.432C20.1181 17.439 20.1184 17.4461 20.1184 17.4531C20.1395 18.0772 20.5955 18.3228 21.1532 18.0007C21.7098 17.6786 22.1628 16.9085 22.1809 16.2623C22.1819 16.2482 22.1819 16.2331 22.1819 16.219ZM21.8801 16.3931C21.8821 16.8561 21.556 17.4208 21.1533 17.6533C20.7497 17.8858 20.4236 17.6986 20.4215 17.2356C20.4195 16.7725 20.7457 16.2088 21.1483 15.9763C21.5509 15.7438 21.8781 15.93 21.8801 16.3931Z" fill="black"/>
<path d="M10.1641 23.9939L4.4889 20.6952C4.31174 20.5926 4.199 20.3782 4.18893 20.0752C4.18893 20.0611 4.18793 20.047 4.18793 20.0329C4.18793 19.9665 4.19195 19.899 4.20101 19.8306L9.87624 23.1292C9.86718 23.1977 9.86316 23.2651 9.86316 23.3315C9.86316 23.3456 9.86316 23.3597 9.86416 23.3738C9.87423 23.6768 9.98697 23.8902 10.1641 23.9939Z" fill="black"/>
<path d="M9.87627 23.1296L4.20105 19.831C4.20709 19.7827 4.21514 19.7344 4.22621 19.686L9.90144 22.9847C9.89137 23.033 9.88231 23.0813 9.87627 23.1296Z" fill="black"/>
<path d="M9.90136 22.9843L4.22614 19.6856C4.23318 19.6534 4.24123 19.6212 4.24929 19.589C4.2513 19.5819 4.25331 19.5759 4.25432 19.5688L9.92954 22.8675C9.92753 22.8745 9.92552 22.8806 9.92451 22.8876C9.91646 22.9198 9.90841 22.952 9.90136 22.9843Z" fill="black"/>
<path d="M9.93066 22.8677L4.25543 19.569C4.2655 19.5338 4.27556 19.4996 4.28764 19.4644L9.96287 22.763C9.95079 22.7972 9.93972 22.8324 9.93066 22.8677Z" fill="black"/>
<path d="M9.96203 22.763L4.2868 19.4643C4.29788 19.4321 4.30895 19.3989 4.32204 19.3667L9.99726 22.6653C9.98519 22.6975 9.97311 22.7308 9.96203 22.763Z" fill="black"/>
<path d="M9.99707 22.6652L4.32184 19.3665C4.33392 19.3353 4.346 19.3051 4.36009 19.2739L10.0353 22.5725C10.0212 22.6038 10.0091 22.635 9.99707 22.6652Z" fill="black"/>
<path d="M10.0355 22.5728L4.36029 19.2742C4.37338 19.244 4.38646 19.2148 4.40156 19.1846L10.0768 22.4832C10.0617 22.5134 10.0476 22.5436 10.0355 22.5728Z" fill="black"/>
<path d="M10.0757 22.4844L4.40045 19.1857C4.41454 19.1565 4.42964 19.1273 4.44474 19.0981L10.12 22.3968C10.1049 22.426 10.0898 22.4552 10.0757 22.4844Z" fill="black"/>
<path d="M10.1201 22.3964L4.44489 19.0978C4.45998 19.0686 4.4771 19.0394 4.4932 19.0112L10.1684 22.3099C10.1523 22.3381 10.1362 22.3672 10.1201 22.3964Z" fill="black"/>
<path d="M10.1682 22.3091L4.49298 19.0104C4.51009 18.9812 4.52821 18.952 4.54633 18.9229L10.2216 22.2215C10.2034 22.2507 10.1863 22.2799 10.1682 22.3091Z" fill="black"/>
<path d="M10.2227 22.2212L4.54742 18.9226C4.56655 18.8924 4.58668 18.8622 4.60681 18.833L10.282 22.1316C10.2609 22.1618 10.2418 22.191 10.2227 22.2212Z" fill="black"/>
<path d="M10.2819 22.1329L4.60663 18.8343C4.62877 18.8031 4.65193 18.7719 4.67508 18.7417L10.3503 22.0403C10.3272 22.0705 10.304 22.1017 10.2819 22.1329Z" fill="black"/>
<path d="M10.3505 22.0405L4.67529 18.7418C4.70247 18.7066 4.73066 18.6734 4.75884 18.6401L10.4341 21.9388C10.4049 21.971 10.3777 22.0052 10.3505 22.0405Z" fill="black"/>
<path d="M10.434 21.9384L4.75873 18.6398C4.79497 18.5975 4.83322 18.5583 4.87147 18.52L10.5467 21.8187C10.5074 21.8559 10.4702 21.8962 10.434 21.9384Z" fill="black"/>
<path d="M10.5464 21.8176L4.87122 18.5189C4.97892 18.4122 5.09569 18.3216 5.21648 18.2512C5.2658 18.223 5.31513 18.1988 5.36244 18.1787L11.0377 21.4774C10.9904 21.4975 10.941 21.5216 10.8917 21.5498C10.7709 21.6203 10.6541 21.7119 10.5464 21.8176Z" fill="black"/>
<path d="M11.0378 21.4776L5.36255 18.179C5.40382 18.1619 5.44408 18.1478 5.48334 18.1377L11.1586 21.4363C11.1193 21.4474 11.079 21.4605 11.0378 21.4776Z" fill="black"/>
<path d="M11.1586 21.4364L5.48334 18.1378C5.51454 18.1297 5.54474 18.1227 5.57393 18.1187L11.2492 21.4173C11.22 21.4213 11.1898 21.4284 11.1586 21.4364Z" fill="black"/>
<path d="M11.2491 21.4171L5.57391 18.1184C5.60009 18.1144 5.62626 18.1114 5.65142 18.1104L11.3266 21.409C11.3015 21.41 11.2763 21.413 11.2491 21.4171Z" fill="black"/>
<path d="M11.3269 21.4092L5.65167 18.1105C5.67482 18.1095 5.69697 18.1095 5.71911 18.1115L11.3943 21.4102C11.3732 21.4081 11.3501 21.4081 11.3269 21.4092Z" fill="black"/>
<path d="M11.3953 21.41L5.72003 18.1113C5.74117 18.1123 5.76231 18.1154 5.78244 18.1184L11.4577 21.417C11.4365 21.414 11.4164 21.411 11.3953 21.41Z" fill="black"/>
<path d="M11.4568 21.4173L5.78156 18.1187C5.80169 18.1217 5.82081 18.1267 5.83893 18.1317L11.5142 21.4304C11.496 21.4253 11.4769 21.4203 11.4568 21.4173Z" fill="black"/>
<path d="M11.5149 21.4305L5.83966 18.1318C5.85879 18.1369 5.8769 18.1439 5.89402 18.151L11.5692 21.4496C11.5511 21.4426 11.533 21.4365 11.5149 21.4305Z" fill="black"/>
<path d="M11.5696 21.4495L5.89435 18.1509C5.91247 18.1579 5.92958 18.167 5.94568 18.176L11.6209 21.4747C11.6048 21.4656 11.5877 21.4576 11.5696 21.4495Z" fill="black"/>
<path d="M11.6208 21.4754L5.94562 18.1768C5.94763 18.1778 5.94964 18.1788 5.95166 18.1798L11.6269 21.4784C11.6249 21.4774 11.6229 21.4764 11.6208 21.4754Z" fill="black"/>
<path d="M12.6122 16.5693L12.6202 19.5157L8.75891 21.7211L10.9151 17.5498L12.6122 16.5693Z" fill="url(#paint0_linear)"/>
<path fill-rule="evenodd" clip-rule="evenodd" d="M10.7682 17.2097L12.9082 15.9746L12.9233 21.1576L11.8644 21.7686C11.7184 21.3982 11.3379 21.2935 10.893 21.5512C10.4481 21.8079 10.0686 22.3514 9.92568 22.889L8.76507 23.5594L8.76407 23.1517L8.05441 23.5614L8.05139 22.4712L10.7682 17.2097ZM12.6205 19.5158L12.6124 16.5694L10.9153 17.5499L8.76018 21.7212L12.6205 19.5158ZM12.6217 19.851C12.6217 19.9335 12.5643 20.0332 12.4928 20.0744L12.0509 20.3281C11.9805 20.3684 11.9231 20.3352 11.9221 20.2536C11.9211 20.1721 11.9795 20.0734 12.0499 20.0322L12.4918 19.7775C12.5633 19.7362 12.6217 19.7684 12.6217 19.851Z" fill="#B8E0E7"/>
<path d="M10.8927 21.8975C11.2954 21.665 11.6235 21.8512 11.6245 22.3142C11.6255 22.7772 11.3004 23.3419 10.8978 23.5745C10.4951 23.807 10.167 23.6198 10.166 23.1567C10.164 22.6937 10.4901 22.13 10.8927 21.8975Z" fill="#95B0C2"/>
<path fill-rule="evenodd" clip-rule="evenodd" d="M11.9266 22.1399C11.9266 21.997 11.9045 21.8722 11.8632 21.7685C11.7172 21.3981 11.3377 21.2934 10.8908 21.5501C10.4459 21.8077 10.0664 22.3503 9.92346 22.8878C9.8832 23.0388 9.86206 23.1888 9.86206 23.3317C9.86206 23.3388 9.86231 23.3458 9.86256 23.3529C9.86282 23.3599 9.86307 23.367 9.86307 23.374C9.88421 23.9981 10.3402 24.2437 10.8979 23.9216C11.4545 23.5995 11.9075 22.8294 11.9256 22.1832C11.9266 22.1691 11.9266 22.154 11.9266 22.1399ZM11.6246 22.3139C11.6266 22.777 11.3004 23.3417 10.8978 23.5742C10.4941 23.8067 10.167 23.6195 10.166 23.1564C10.164 22.6934 10.4901 22.1297 10.8928 21.8972C11.2954 21.6647 11.6235 21.8509 11.6246 22.3139Z" fill="black"/>
<path d="M8.05511 23.967L8.0531 23.5593L2.37787 20.2617L2.37888 20.6694L2.37988 21.0771L8.05612 24.3747L8.05511 23.967Z" fill="black"/>
<path d="M25.8229 13.71L24.9663 14.2042C25.0076 14.3079 25.0297 14.4327 25.0297 14.5756L25.8239 14.1176L25.8229 13.71Z" fill="url(#paint1_linear)"/>
<path d="M22.1828 16.2196L22.9659 15.7676C22.9659 15.6247 22.9871 15.4747 23.0273 15.3237L22.1194 15.8482C22.1596 15.9519 22.1818 16.0767 22.1828 16.2196Z" fill="url(#paint2_linear)"/>
<path d="M11.8632 21.7688C11.9045 21.8725 11.9266 21.9973 11.9266 22.1402L12.9232 21.5654L20.1184 17.4112C20.1184 17.2683 20.1395 17.1183 20.1798 16.9673L12.9222 21.1578L11.8632 21.7688Z" fill="url(#paint3_linear)"/>
<path d="M8.76299 23.1509L8.05334 23.5606L8.05435 23.9683L8.05536 24.3759L8.76501 23.9663L9.8632 23.3321C9.8632 23.1892 9.88434 23.0392 9.9246 22.8882L8.764 23.5586L8.76299 23.1509Z" fill="url(#paint4_linear)"/>
<path d="M12.9043 14.7465L7.22907 11.4479L20.1287 4L25.8039 7.29864L12.9043 14.7465Z" fill="#E1D5D5"/>
<path d="M12.9083 15.9744L7.23208 12.6758L7.22906 11.4478L12.9043 14.7464L12.9083 15.9744Z" fill="#5D6C8E"/>
<path d="M8.05325 23.5592L2.37802 20.2615L2.375 19.1714L8.05023 22.47L8.05325 23.5592Z" fill="#627799"/>
<path d="M6.33185 22.2438L3.95727 20.8637L3.95526 20.4077L6.33085 21.7878L6.33185 22.2438Z" fill="#31486E"/>
<path d="M10.768 17.2095L5.09174 13.9119L7.23177 12.6758L12.908 15.9744L10.768 17.2095Z" fill="#D4E9EC"/>
<path d="M8.05023 22.4703L2.375 19.1716L5.09182 13.9121L10.7681 17.2097L8.05023 22.4703Z" fill="url(#paint5_linear)"/>
<path d="M7.83901 21.856L2.97711 19.0305L5.30438 14.5249L10.1663 17.3504L7.83901 21.856Z" fill="url(#paint6_linear)"/>
<path d="M10.8947 15.8768L6.29657 13.2163L7.2317 12.6758L12.9079 15.9744L10.8947 15.8768Z" fill="url(#paint7_linear)"/>
<path d="M3.5416 20.158L2.57123 19.5933L2.57223 20.0503L3.5416 20.6129L3.5416 20.158Z" fill="#5F5224"/>
<path d="M7.71408 22.5549L6.74371 21.9902L6.74472 22.4462L7.71408 23.0099L7.71408 22.5549Z" fill="#5F5224"/>
</g>
<defs>
<linearGradient id="paint0_linear" x1="9.62291" y1="16.6646" x2="9.62291" y2="19.5115" gradientUnits="userSpaceOnUse">
<stop stop-color="#404040"/>
<stop offset="0.3316" stop-color="#2E2E2E"/>
<stop offset="0.991" stop-color="#010101"/>
<stop offset="1"/>
</linearGradient>
<linearGradient id="paint1_linear" x1="6.76139" y1="31.1894" x2="13.9694" y2="26.6525" gradientUnits="userSpaceOnUse">
<stop stop-color="#404040"/>
<stop offset="0.3316" stop-color="#2E2E2E"/>
<stop offset="0.991" stop-color="#010101"/>
<stop offset="1"/>
</linearGradient>
<linearGradient id="paint2_linear" x1="6.73059" y1="30.979" x2="13.8429" y2="26.2941" gradientUnits="userSpaceOnUse">
<stop stop-color="#404040"/>
<stop offset="0.3316" stop-color="#2E2E2E"/>
<stop offset="0.991" stop-color="#010101"/>
<stop offset="1"/>
</linearGradient>
<linearGradient id="paint3_linear" x1="7.90644" y1="29.3745" x2="11.8532" y2="22.8324" gradientUnits="userSpaceOnUse">
<stop stop-color="#404040"/>
<stop offset="0.3316" stop-color="#2E2E2E"/>
<stop offset="0.991" stop-color="#010101"/>
<stop offset="1"/>
</linearGradient>
<linearGradient id="paint4_linear" x1="6.80495" y1="29.5316" x2="12.6367" y2="23.6151" gradientUnits="userSpaceOnUse">
<stop stop-color="#404040"/>
<stop offset="0.3316" stop-color="#2E2E2E"/>
<stop offset="0.991" stop-color="#010101"/>
<stop offset="1"/>
</linearGradient>
<linearGradient id="paint5_linear" x1="9.68282" y1="13.547" x2="1.98389" y2="14.9479" gradientUnits="userSpaceOnUse">
<stop stop-color="#7994CC"/>
<stop offset="0.2822" stop-color="#738BBD"/>
<stop offset="0.843" stop-color="#627399"/>
<stop offset="1" stop-color="#5D6C8E"/>
</linearGradient>
<linearGradient id="paint6_linear" x1="5.72481" y1="14.7621" x2="3.15824" y2="19.0043" gradientUnits="userSpaceOnUse">
<stop stop-color="#2B2B2B"/>
<stop offset="0.4611" stop-color="#1A1A1A"/>
<stop offset="1"/>
</linearGradient>
<linearGradient id="paint7_linear" x1="10.1333" y1="15.5486" x2="10.3143" y2="14.4295" gradientUnits="userSpaceOnUse">
<stop stop-color="#D4E9EC"/>
<stop offset="0.3507" stop-color="#C4DBDF"/>
<stop offset="1" stop-color="#9CBBC0"/>
</linearGradient>
<clipPath id="clip0">
<path d="M0 6.4C0 4.15979 0 3.03969 0.435974 2.18404C0.819467 1.43139 1.43139 0.819467 2.18404 0.435974C3.03969 0 4.15979 0 6.4 0H21.6C23.8402 0 24.9603 0 25.816 0.435974C26.5686 0.819467 27.1805 1.43139 27.564 2.18404C28 3.03969 28 4.15979 28 6.4V21.6C28 23.8402 28 24.9603 27.564 25.816C27.1805 26.5686 26.5686 27.1805 25.816 27.564C24.9603 28 23.8402 28 21.6 28H6.4C4.15979 28 3.03969 28 2.18404 27.564C1.43139 27.1805 0.819467 26.5686 0.435974 25.816C0 24.9603 0 23.8402 0 21.6V6.4Z" fill="white"/>
</clipPath>
</defs>
</svg>
