<svg width="18" height="18" viewBox="0 0 18 18"  xmlns="http://www.w3.org/2000/svg">
<path fill-rule="evenodd" clip-rule="evenodd" d="M13.1111 1.58294C12.9144 1.2963 12.5891 1.125 12.2415 1.125H2.26758C1.95692 1.125 1.70508 1.37684 1.70508 1.6875V16.3125C1.70508 16.6232 1.95692 16.875 2.26758 16.875H5.41448C5.45925 16.8865 5.50619 16.8926 5.55454 16.8926H12.4452C12.4935 16.8926 12.5405 16.8865 12.5852 16.875H15.7324C16.0431 16.875 16.2949 16.6232 16.2949 16.3125V6.54972C16.2949 6.33668 16.2304 6.12864 16.1099 5.95298L13.1111 1.58294ZM6.39829 15.4688H11.6014V10.8281C11.6014 10.636 11.4473 10.4798 11.2559 10.4766L11.2499 10.4766H6.39829V15.4688ZM13.0077 10.8281V15.4688H14.8886V6.65873L12.0563 2.53125H11.3202V4.34172C11.3202 4.73004 11.0054 5.04484 10.617 5.04484C10.2326 5.04484 9.92021 4.73631 9.91401 4.35334L9.91391 4.34172V2.53125H8.41474V4.28906C8.41474 4.67739 8.09994 4.99219 7.71162 4.99219C7.32718 4.99219 7.0148 4.68365 7.00859 4.30069L7.00849 4.28906V2.53125H5.50932V4.28906C5.50932 4.67739 5.19452 4.99219 4.80619 4.99219C4.42175 4.99219 4.10937 4.68365 4.10316 4.30069L4.10307 4.28906V2.53125H3.11126V15.4688H4.99204V9.63281C4.99204 9.32215 5.24388 9.07031 5.55454 9.07031H11.2499C12.2207 9.07031 13.0077 9.85731 13.0077 10.8281Z"/>
</svg>
