<svg width="18" height="18" viewBox="0 0 18 18" fill="none" xmlns="http://www.w3.org/2000/svg">
<path fill-rule="evenodd" clip-rule="evenodd" d="M10.1754 1.44157L10.1811 1.44148C10.7433 1.43576 11.2571 1.7661 11.4752 2.28308L11.4786 2.29108L11.4818 2.29916C11.8186 3.15625 12.7189 3.68849 13.6713 3.58411L13.6748 3.58373L13.6953 3.5818C14.2556 3.53256 14.7961 3.80842 15.0772 4.2915L15.0838 4.30314L16.2459 6.18762L16.2517 6.19625C16.5541 6.65396 16.5509 7.24635 16.2423 7.70126L16.2326 7.71529L16.2163 7.73868L16.1982 7.76068C15.9118 8.10797 15.7536 8.53585 15.7467 8.97732L15.7465 8.99111L15.7473 9.00456C15.7724 9.44565 15.9484 9.86726 16.2491 10.2033L16.2588 10.2141L16.2892 10.2476L16.3151 10.2847C16.6333 10.7414 16.6396 11.3413 16.3342 11.8038L16.3285 11.8122L15.1663 13.6968L15.1596 13.7085C14.8786 14.1915 14.3383 14.4673 13.7781 14.4182L13.7607 14.4166L13.7462 14.4152L13.7318 14.4131C12.7546 14.2747 11.8142 14.8133 11.4711 15.6979L11.4697 15.7017C11.3598 15.9869 11.1544 16.2155 10.8756 16.3627L10.8645 16.3685C10.6119 16.499 10.3127 16.5584 9.96769 16.5584H7.89928L7.89361 16.5585C7.33705 16.5642 6.82795 16.2405 6.60618 15.7325L6.59948 15.7169L6.5954 15.7073L6.59162 15.6975C6.24076 14.7913 5.26494 14.2508 4.26877 14.4214L4.26446 14.4222L4.24304 14.4254C3.68343 14.5071 3.12668 14.2451 2.84092 13.7592L1.67783 11.8845L1.67349 11.8781C1.36082 11.415 1.36408 10.8101 1.68326 10.35L1.69323 10.3358L1.71252 10.3088L1.73427 10.2836C2.3783 9.53969 2.3783 8.46031 1.73427 7.71637L1.71252 7.69124L1.69323 7.66418C1.36418 7.20237 1.3576 6.58974 1.67349 6.12189L1.67783 6.11552L2.84117 4.24037L2.84242 4.23824C3.12863 3.75394 3.68441 3.49304 4.24304 3.57456L4.26446 3.57784L4.26877 3.57858C5.26494 3.74916 6.24076 3.20874 6.59162 2.30251L6.5932 2.29833C6.70461 2.00926 6.91399 1.77841 7.19846 1.63148C7.45104 1.50102 7.75019 1.44158 8.09522 1.44158L10.1754 1.44157ZM13.8178 4.98259L13.7774 4.98673C12.2293 5.13575 10.7621 4.26589 10.1868 2.84768H10.1869L10.1732 2.81344C10.1777 2.82489 10.1822 2.83631 10.1868 2.84768L8.0954 2.8477C8.02136 2.8477 7.96017 2.85283 7.91203 2.86173L7.90453 2.86316L7.89379 2.86541L7.88405 2.86765L7.8798 2.86869L7.86628 2.90148C7.24984 4.36637 5.68088 5.22376 4.0811 4.97265L4.0455 4.9668L2.86273 6.87327L2.8938 6.9119C3.86703 8.14021 3.86703 9.85953 2.8938 11.0878L2.86273 11.1265L4.0455 13.0329L4.0811 13.0271C5.69738 12.7734 7.28219 13.6512 7.88505 15.1438L7.88833 15.152L9.96786 15.152C10.0419 15.152 10.1031 15.1469 10.1512 15.138L10.1587 15.1366L10.1695 15.1343L10.1792 15.1321L10.1835 15.131L10.1963 15.1C10.7982 13.6692 12.3116 12.8136 13.8806 13.0141L13.9053 13.0174L13.9076 13.0174C13.9245 13.0172 13.938 13.0101 13.9435 13.0023L13.9446 13.0007L13.953 12.9853L15.1364 11.0663L15.1241 11.0516C14.6531 10.4873 14.3781 9.78916 14.3421 9.0588L14.341 9.03523L14.3404 9.02021L14.3404 9.00517C14.3408 8.25743 14.5925 7.53198 15.0546 6.93925L15.0563 6.93709L13.8706 5.01442L13.8621 4.99905C13.8569 4.98958 13.8392 4.98045 13.8178 4.98259Z" fill="#D6D7DB"/>
<path fill-rule="evenodd" clip-rule="evenodd" d="M9.00021 11.5716C10.4204 11.5716 11.5716 10.4204 11.5716 9.00021C11.5716 7.58005 10.4204 6.42878 9.00021 6.42878C7.58005 6.42878 6.42878 7.58005 6.42878 9.00021C6.42878 10.4204 7.58005 11.5716 9.00021 11.5716ZM9.00021 12.8574C11.1305 12.8574 12.8574 11.1305 12.8574 9.00021C12.8574 6.86997 11.1305 5.14307 9.00021 5.14307C6.86997 5.14307 5.14307 6.86997 5.14307 9.00021C5.14307 11.1305 6.86997 12.8574 9.00021 12.8574Z" fill="#D6D7DB"/>
</svg>
