<svg width="16" height="16" viewBox="0 0 16 16" xmlns="http://www.w3.org/2000/svg">
<path d="M15.3808 2.90556C15.3808 2.78921 15.3341 2.67762 15.2509 2.59534C15.1678 2.51306 15.055 2.46683 14.9375 2.4668H6.77071C6.65313 2.46683 6.54037 2.51306 6.45723 2.59534C6.37409 2.67762 6.32737 2.78921 6.32734 2.90556V4.18387L3.33618 4.17409H3.33468C3.25807 4.17412 3.18277 4.19379 3.11613 4.23119C3.04948 4.26859 2.99377 4.32245 2.95442 4.3875L0.730216 8.05588C0.688846 8.12426 0.666995 8.20246 0.666992 8.28215V11.6523C0.666992 12.583 1.43257 13.3407 2.37357 13.3407H3.06926C3.07627 14.2827 3.85219 15.0472 4.80549 15.0472C5.75879 15.0472 6.53471 14.2827 6.54172 13.3407H9.60979C9.61692 14.2827 10.3926 15.0472 11.346 15.0472C12.2994 15.0472 13.0752 14.2827 13.0823 13.3407H13.6739C14.615 13.3407 15.3806 12.583 15.3806 11.6523V9.1598C15.3806 9.14979 15.3782 9.14046 15.3777 9.13068C15.3783 9.12078 15.3806 9.11145 15.3806 9.10144V2.90556H15.3808ZM14.494 3.34445V8.66267H7.21707L7.21419 8.47952V3.34445H14.494ZM4.80549 14.1695C4.33672 14.1695 3.95542 13.7916 3.95542 13.3279C3.95542 12.8642 4.33672 12.487 4.80549 12.487C5.27426 12.487 5.65556 12.8641 5.65556 13.3279C5.65556 13.7917 5.27438 14.1695 4.80549 14.1695ZM11.3461 14.1695C10.8776 14.1695 10.4961 13.7916 10.4961 13.3279C10.4961 12.8642 10.8775 12.487 11.3461 12.487C11.8148 12.487 12.1963 12.8641 12.1963 13.3279C12.1963 13.7917 11.8148 14.1695 11.3461 14.1695ZM14.494 11.6523C14.494 12.0997 14.1264 12.463 13.6741 12.463H12.8448C12.5431 11.9534 11.985 11.6094 11.3461 11.6094C10.7036 11.6094 10.1427 11.957 9.84234 12.4714C9.81436 12.466 9.78591 12.4631 9.75739 12.463H6.30412C6.00237 11.9534 5.44439 11.6094 4.80549 11.6094C4.16659 11.6094 3.60861 11.9533 3.30698 12.463H2.37357C1.92146 12.463 1.55385 12.0997 1.55385 11.6523V8.40387L3.58493 5.05265L6.27216 5.06164L6.32722 8.49124V9.10144C6.32722 9.14035 6.33401 9.17732 6.34355 9.21315C6.37068 9.42986 6.55563 9.59857 6.78151 9.59857H14.494V11.6523Z" stroke="#2F374B" stroke-width="0.15" stroke-linecap="round" stroke-linejoin="round"/>
<path d="M2.85603 8.55901L2.85602 8.55903C2.8434 8.58035 2.83522 8.60379 2.83185 8.62801C2.82847 8.65223 2.82994 8.67687 2.8362 8.70058C2.84246 8.72428 2.85341 8.74669 2.86855 8.76647C2.8837 8.78626 2.90277 8.80307 2.92476 8.81582C2.94676 8.82857 2.97121 8.83698 2.9967 8.84046L2.96287 9.08816L2.9967 8.84046C3.0222 8.84394 3.04814 8.84242 3.073 8.83599C3.09786 8.82956 3.12105 8.81839 3.14128 8.80322C3.16149 8.78807 3.17833 8.76925 3.19095 8.74794C3.19096 8.74793 3.19096 8.74792 3.19097 8.74791L4.45669 6.6086L4.45679 6.60843C4.46941 6.58714 4.47759 6.56373 4.48097 6.53954C4.48435 6.51535 4.48288 6.49073 4.47663 6.46705C4.47038 6.44338 4.45943 6.421 4.4443 6.40124M2.85603 8.55901L4.4443 6.40124M2.85603 8.55901L4.12164 6.42008C4.12167 6.42002 4.1217 6.41997 4.12174 6.41991L2.85603 8.55901ZM4.4443 6.40124L4.64276 6.24921L4.38812 6.35198C4.4101 6.3647 4.42916 6.38148 4.4443 6.40124Z" fill="#2F374B" stroke="#2F374B" stroke-width="0.5"/>
</svg>
