<svg width="19" height="19" viewBox="0 0 19 19" xmlns="http://www.w3.org/2000/svg">
<rect y="0.5" width="18" height="18" fill-opacity="0.01"/>
<path fill-rule="evenodd" clip-rule="evenodd" d="M9.73089 1.20908C9.72467 0.826113 9.41168 0.517578 9.02649 0.517578C8.6374 0.517578 8.32199 0.832378 8.32199 1.2207V2.14934C4.79446 2.47739 1.98596 5.27753 1.65281 8.79688H0.722079L0.710429 8.79697C0.326717 8.80318 0.0175781 9.11556 0.0175781 9.5C0.0175781 9.88833 0.332994 10.2031 0.722079 10.2031H1.65281C1.98597 13.7225 4.79446 16.5226 8.32199 16.8507V17.7793L8.32208 17.7909C8.3283 18.1739 8.64129 18.4824 9.02649 18.4824C9.41557 18.4824 9.73098 18.1676 9.73098 17.7793V16.8489C13.2466 16.5128 16.0439 13.7208 16.3803 10.2119H17.3138L17.3254 10.2118C17.7092 10.2056 18.0183 9.89324 18.0183 9.50879C18.0183 9.12047 17.7029 8.80566 17.3138 8.80566H16.3819C16.0532 5.28853 13.2525 2.48776 9.73098 2.15114V1.2207L9.73089 1.20908ZM9.01675 3.52344C5.70953 3.52344 3.02849 6.19923 3.02849 9.5C3.02849 12.8008 5.70953 15.4766 9.01675 15.4766C12.324 15.4766 15.005 12.8008 15.005 9.5C15.005 6.19923 12.324 3.52344 9.01675 3.52344ZM9.01696 5.9668C10.9721 5.9668 12.5571 7.54867 12.5571 9.5C12.5571 11.4513 10.9721 13.0332 9.01696 13.0332C7.06181 13.0332 5.47684 11.4513 5.47684 9.5C5.47684 7.54867 7.06181 5.9668 9.01696 5.9668ZM9.01677 7.37304C7.83979 7.37304 6.88565 8.32532 6.88565 9.5C6.88565 10.6747 7.83979 11.627 9.01677 11.627C10.1937 11.627 11.1479 10.6747 11.1479 9.5C11.1479 8.32532 10.1937 7.37304 9.01677 7.37304Z"/>
</svg>
