<?xml version="1.0" encoding="UTF-8"?>
<svg width="14px" height="18px" viewBox="0 0 14 18" version="1.1" xmlns="http://www.w3.org/2000/svg" xmlns:xlink="http://www.w3.org/1999/xlink">
    <!-- Generator: Sketch 63.1 (92452) - https://sketch.com -->
    <title>形状</title>
    <desc>Created with Sketch.</desc>
    <g id="登陆" stroke="none" stroke-width="1" fill="none" fill-rule="evenodd">
        <g id="登录/优化蓝" transform="translate(-1069.000000, -619.000000)" fill="#9A9FA9" fill-rule="nonzero">
            <g id="编组-2备份" transform="translate(1052.000000, 610.000000)">
                <path d="M30.4166667,11.25 L29.95,11.25 C26.1,11.25 24.4666667,9.45 24.35,9.45 L24,9 L23.65,9.45 C23.65,9.45 21.9,11.25 18.05,11.25 L17,11.25 L17,19.35 C17,21.4875 17.7,24.525 23.7666667,27 L24,27 L24.2333333,26.8875 C30.3,24.525 31,21.375 31,19.2375 L31,11.25 L30.4166667,11.25 Z M23.4166667,21.375 L19.9166667,18 L20.85,17.2125 L22.7166667,18.675 C24.1166667,17.1 25.8666667,15.75 27.7333333,14.625 L28.0833333,15.075 C26.1,16.875 24.5833333,19.0125 23.4166667,21.375 Z" id="形状"></path>
            </g>
        </g>
    </g>
</svg>